<svg xmlns:xlink="http://www.w3.org/1999/xlink" xmlns="http://www.w3.org/2000/svg" id="Capa_1" data-name="Capa 1" viewBox="0 0 123.32 34" width="128"  height="36" ><defs><style>.cls-1{fill:#fcfcfb;}.cls-2{isolation:isolate;}</style></defs><title>icon</title><path class="cls-1" d="M17.06-.12A17.06,17.06,0,1,0,34.12,16.94,17.06,17.06,0,0,0,17.06-.12Zm2.28,19.41V18.05l6.1-1.56-6.27-4L16.05,23.34,6,16.94l9.14-2.36v1.25l-6.1,1.55,6.28,4,3.12-10.85,10,6.4Z"/><g class="cls-2"><g class="cls-2"><path class="cls-1" d="M43.59,23.34H42.15V9.17h1.44v8.52h.06L48.05,13h1.84l-4.18,4.46,4.44,5.87H48.34l-3.7-4.92-1,1.1Z"/></g><g class="cls-2"><path class="cls-1" d="M61.34,17.66v1c0,2.78-1.54,4.83-4.36,4.83s-4.37-2.05-4.37-4.83v-1c0-2.77,1.56-4.81,4.37-4.81S61.34,14.89,61.34,17.66Zm-7.28.07v.87c0,2.24,1.08,3.62,2.92,3.62s2.91-1.37,2.91-3.62v-.87c0-2.24-1.07-3.61-2.91-3.61S54.06,15.49,54.06,17.73Z"/><path class="cls-1" d="M72.2,14.49h0V9.17h1.45V23.34H72.32V21.73h0a3.41,3.41,0,0,1-3.1,1.77c-2.68,0-4.13-1.95-4.13-4.8V17.64c0-2.8,1.56-4.8,4.13-4.8A3.42,3.42,0,0,1,72.2,14.49Zm-5.7,3.22v.94c0,2.36,1.19,3.56,2.83,3.56,1.84,0,2.94-1.33,2.94-3.55v-1c0-2.13-1.13-3.57-3-3.57C67.71,14.13,66.5,15.3,66.5,17.71Z"/><path class="cls-1" d="M77.85,18.7V17.51c0-2.73,1.5-4.66,4.18-4.66s4.18,1.91,4.18,4.78v.91h-6.9v.2c0,2.11,1,3.52,2.84,3.52a2.37,2.37,0,0,0,2.44-1.66h1.47a3.74,3.74,0,0,1-4,2.91C79.44,23.51,77.85,21.62,77.85,18.7Zm6.9-1.42v0c0-1.8-1.08-3.16-2.72-3.16s-2.72,1.37-2.72,3.16v0Z"/><path class="cls-1" d="M90.29,13h1.45v1.3h.07a2.83,2.83,0,0,1,2.63-1.46,2.91,2.91,0,0,1,3,1.7h.06a3.27,3.27,0,0,1,3.18-1.7,3.21,3.21,0,0,1,3.47,3.47v7h-1.45V16.58a2.19,2.19,0,0,0-2.34-2.4A2.33,2.33,0,0,0,98,16.74v6.6H96.5v-6.6a2.24,2.24,0,0,0-2.36-2.56,2.34,2.34,0,0,0-2.4,2.56v6.6H90.29Z"/><path class="cls-1" d="M109.46,9.51a1,1,0,1,1-1,1A1,1,0,0,1,109.46,9.51Zm-.72,3.5h1.45V23.34h-1.45Z"/><path class="cls-1" d="M117.61,23.51a3.08,3.08,0,0,1-3.38-3.13c0-1.78,1.25-2.93,3.6-2.94h2.82V16.33a2.06,2.06,0,0,0-2.32-2.23c-1.42,0-2.2.7-2.32,1.79h-1.37c.12-1.79,1.35-3,3.75-3,2.15,0,3.71,1.19,3.71,3.31v7.18h-1.41V22h0A3.32,3.32,0,0,1,117.61,23.51Zm3-3.61V18.63h-2.77c-1.5,0-2.15.72-2.15,1.72A2,2,0,0,0,118,22.26,2.46,2.46,0,0,0,120.65,19.9Z"/></g></g><rect class="cls-1" x="114.83" y="26.2" width="8.52" height="0.8"/></svg>